<svg width="60" height="60" viewBox="0 0 60 60" fill="none" xmlns="http://www.w3.org/2000/svg">
<g clip-path="url(#clip0_1_451)">
<path d="M30 0C13.4314 0 0 13.4314 0 30C0 46.5686 13.4314 60 30 60C46.5686 60 60 46.5686 60 30C60 13.4314 46.5686 0 30 0ZM41.4451 15.2777L37.2958 15.2796C34.0419 15.2796 33.4128 16.8258 33.4128 19.0944V24.097H41.172L41.1683 31.9323H33.4134V52.0395H25.3203V31.9323H18.5549V24.097H25.3203V18.3186C25.3203 11.6127 29.4175 7.96051 35.3991 7.96051L41.4457 7.96972V15.2777H41.4451Z" fill="white"/>
</g>
<defs>
<clipPath id="clip0_1_451">
<rect width="60" height="60" fill="white"/>
</clipPath>
</defs>
</svg>
