<svg width="20" height="20" viewBox="0 0 20 20" fill="none" xmlns="http://www.w3.org/2000/svg">
<g clip-path="url(#clip0_1_443)">
<path d="M10.2511 0.00416853C6.18956 -0.132709 2.8541 3.11898 2.8541 7.14965C2.8541 11.724 7.24392 15.0438 9.70441 19.818C9.82934 20.0604 10.1783 20.0608 10.3036 19.8184C12.5295 15.5225 16.3338 12.6419 17.0388 8.50332C17.7688 4.2207 14.593 0.150548 10.2511 0.00416853ZM10.0037 10.8947C7.9354 10.8947 6.25868 9.21789 6.25868 7.14965C6.25868 5.08142 7.93544 3.40466 10.0037 3.40466C12.0719 3.40466 13.7487 5.08142 13.7487 7.14965C13.7487 9.21789 12.0719 10.8947 10.0037 10.8947Z" fill="white"/>
</g>
<defs>
<clipPath id="clip0_1_443">
<rect width="20" height="20" fill="white"/>
</clipPath>
</defs>
</svg>
