<svg width="37" height="37" viewBox="0 0 37 37" fill="none" xmlns="http://www.w3.org/2000/svg">
<g clip-path="url(#clip0_1_200)">
<path d="M18.675 36.1744C14.3963 36.1744 10.2463 34.6523 6.98958 31.8882C6.2249 31.2397 5.50758 30.5206 4.85774 29.7512C2.11475 26.4999 0.60437 22.3636 0.60437 18.1038C0.60437 13.2769 2.484 8.739 5.89708 5.32592C9.31017 1.91283 13.8481 0.0332031 18.675 0.0332031C23.5019 0.0332031 28.0398 1.91283 31.4529 5.32592C34.866 8.739 36.7456 13.2769 36.7456 18.1038C36.7456 22.3637 35.2352 26.4999 32.4926 29.7507C31.8424 30.5206 31.1251 31.2397 30.3602 31.8884C27.1037 34.6523 22.9537 36.1744 18.675 36.1744ZM18.675 2.29203C9.95634 2.29203 2.8632 9.38517 2.8632 18.1038C2.8632 21.8312 4.18454 25.4502 6.58384 28.2942C7.15278 28.9678 7.78109 29.5976 8.45097 30.1659C11.3002 32.584 14.931 33.9156 18.675 33.9156C22.4189 33.9156 26.0498 32.584 28.8988 30.166C29.5689 29.5976 30.1972 28.9677 30.7665 28.2937C33.1654 25.4503 34.4868 21.8313 34.4868 18.1038C34.4868 9.38517 27.3936 2.29203 18.675 2.29203Z" fill="#919191"/>
<path d="M18.675 18.1038C14.9384 18.1038 11.8985 15.0639 11.8985 11.3273C11.8985 7.59073 14.9384 4.55084 18.675 4.55084C22.4116 4.55084 25.4515 7.59073 25.4515 11.3273C25.4515 15.0639 22.4116 18.1038 18.675 18.1038ZM18.675 6.80967C16.1839 6.80967 14.1573 8.83626 14.1573 11.3273C14.1573 13.8184 16.1839 15.845 18.675 15.845C21.166 15.845 23.1926 13.8184 23.1926 11.3273C23.1926 8.83626 21.166 6.80967 18.675 6.80967Z" fill="#919191"/>
<path d="M29.6304 32.1568C29.5393 32.1568 29.4469 32.1457 29.3545 32.1226C28.7496 31.9707 28.3823 31.3572 28.5341 30.7522C28.7368 29.9444 28.8397 29.1088 28.8397 28.2685C28.8397 22.7425 24.347 18.1838 18.8237 18.1045L18.6749 18.1038L18.5262 18.1045C13.0029 18.1838 8.51023 22.7425 8.51023 28.2685C8.51023 29.1088 8.61308 29.9444 8.81581 30.7522C8.96764 31.3572 8.6003 31.9707 7.99536 32.1226C7.39042 32.2744 6.77679 31.9071 6.62496 31.3021C6.37705 30.3147 6.2514 29.294 6.2514 28.2685C6.2514 24.9807 7.52319 21.8815 9.83249 19.5417C12.1395 17.2042 15.2173 15.8917 18.4989 15.8458C18.5042 15.8457 18.5094 15.8457 18.5147 15.8457L18.6749 15.845L18.8352 15.8457C18.8405 15.8457 18.8457 15.8457 18.851 15.8457C22.1326 15.8916 25.2104 17.2041 27.5174 19.5416C29.8267 21.8815 31.0985 24.9807 31.0985 28.2685C31.0985 29.294 30.9728 30.3147 30.7249 31.3021C30.5963 31.8147 30.136 32.1567 29.6304 32.1568Z" fill="#919191"/>
</g>
<defs>
<clipPath id="clip0_1_200">
<rect width="36.1412" height="36.1412" fill="white" transform="translate(0.60437 0.0332031)"/>
</clipPath>
</defs>
</svg>
